<svg width="416" height="106" viewBox="0 0 416 106" fill="none" xmlns="http://www.w3.org/2000/svg">
<g clip-path="url(#clip0_329_72)">
<path d="M32.82 21.7502C33.25 21.8102 33.64 21.9202 33.98 22.0702C34.32 22.2302 34.65 22.4502 34.97 22.7402C35.28 23.0302 35.64 23.4102 36.04 23.9002L65.73 61.4502C65.61 60.2502 65.53 59.0802 65.47 57.9502C65.41 56.8202 65.38 55.7502 65.38 54.7502V21.6602H78.17V84.1802H70.62C69.5 84.1802 68.56 84.0102 67.79 83.6602C67.02 83.3202 66.27 82.6902 65.56 81.7702L36.08 44.5302C36.17 45.6202 36.24 46.6802 36.3 47.7302C36.36 48.7802 36.39 49.7602 36.39 50.6702V84.1802H23.6V21.6602H31.24C31.87 21.6602 32.4 21.6902 32.83 21.7402L32.82 21.7502Z" fill="white"/>
<path d="M104.35 84.1802H89.76V21.6602H104.35V84.1802Z" fill="white"/>
<path d="M130.44 46.9802H132.76C134.91 46.9802 136.45 46.3102 137.4 44.9602L151.47 24.5402C152.24 23.4202 153.12 22.6702 154.11 22.2702C155.1 21.8702 156.31 21.6702 157.74 21.6702H170.36L151.82 46.9402C151.16 47.8602 150.48 48.6102 149.76 49.2102C149.04 49.8102 148.31 50.3102 147.57 50.7102C148.66 51.1102 149.65 51.6602 150.55 52.3602C151.45 53.0602 152.27 54.0002 153.02 55.1702L171.9 84.1802H158.94C158.11 84.1802 157.4 84.1202 156.82 84.0102C156.23 83.9002 155.72 83.7202 155.3 83.5002C154.87 83.2702 154.5 82.9902 154.18 82.6602C153.86 82.3302 153.56 81.9502 153.28 81.5202L139.12 59.7602C138.61 58.9602 137.95 58.4002 137.17 58.0602C136.38 57.7302 135.32 57.5702 133.97 57.5702H130.45V84.1702H115.95V21.6602H130.45V46.9702L130.44 46.9802Z" fill="white"/>
<path d="M237.63 52.9C237.63 57.42 236.85 61.62 235.29 65.52C233.73 69.42 231.54 72.79 228.7 75.67C225.87 78.54 222.46 80.8 218.47 82.43C214.48 84.06 210.05 84.87 205.19 84.87C200.33 84.87 195.89 84.06 191.89 82.43C187.88 80.8 184.46 78.55 181.61 75.67C178.76 72.79 176.56 69.41 175 65.52C173.44 61.63 172.66 57.42 172.66 52.9C172.66 48.38 173.44 44.18 175 40.28C176.56 36.38 178.76 33.01 181.61 30.15C184.46 27.29 187.88 25.04 191.89 23.41C195.89 21.78 200.33 20.96 205.19 20.96C210.05 20.96 214.48 21.78 218.47 23.43C222.46 25.08 225.87 27.33 228.7 30.19C231.53 33.05 233.73 36.43 235.29 40.32C236.85 44.21 237.63 48.4 237.63 52.89V52.9ZM222.78 52.9C222.78 49.81 222.38 47.03 221.58 44.55C220.78 42.08 219.63 39.98 218.12 38.26C216.62 36.54 214.78 35.23 212.61 34.31C210.43 33.39 207.96 32.94 205.19 32.94C202.42 32.94 199.89 33.4 197.7 34.31C195.51 35.22 193.67 36.54 192.16 38.26C190.66 39.98 189.51 42.07 188.71 44.55C187.91 47.03 187.51 49.81 187.51 52.9C187.51 55.99 187.91 58.81 188.71 61.29C189.51 63.77 190.66 65.86 192.16 67.58C193.66 69.3 195.51 70.6 197.7 71.51C199.89 72.41 202.38 72.86 205.19 72.86C208 72.86 210.44 72.41 212.61 71.51C214.79 70.61 216.62 69.3 218.12 67.58C219.62 65.86 220.77 63.77 221.58 61.29C222.38 58.82 222.78 56.02 222.78 52.9Z" fill="white"/>
<path d="M259.08 72.6002H282.25V84.1902H244.58V21.6602H259.08V72.5902V72.6002Z" fill="white"/>
<path d="M347.3 84.1799H336.06C334.8 84.1799 333.77 83.8899 332.95 83.2999C332.14 82.7099 331.57 81.9599 331.25 81.0499L327.56 70.1499H303.79L300.1 81.0499C299.81 81.8499 299.26 82.5699 298.43 83.2199C297.6 83.8699 296.59 84.1899 295.38 84.1899H284.05L308.25 21.6699H323.1L347.3 84.1899V84.1799ZM307.14 60.2799H324.22L318.47 43.1599C318.1 42.0699 317.66 40.7899 317.16 39.3199C316.66 37.8499 316.17 36.2499 315.68 34.5399C315.22 36.2799 314.75 37.8999 314.26 39.3899C313.77 40.8799 313.32 42.1599 312.89 43.2499L307.14 60.2899V60.2799Z" fill="white"/>
<path d="M387.21 34.3597C386.78 35.0497 386.33 35.5597 385.86 35.9097C385.39 36.2497 384.78 36.4297 384.04 36.4297C383.38 36.4297 382.67 36.2197 381.91 35.8097C381.15 35.3997 380.29 34.9297 379.34 34.4097C378.38 33.8997 377.29 33.4297 376.06 33.0197C374.83 32.6097 373.43 32.3997 371.85 32.3997C369.13 32.3997 367.11 32.9797 365.78 34.1397C364.45 35.2997 363.78 36.8597 363.78 38.8397C363.78 40.0997 364.18 41.1397 364.98 41.9697C365.78 42.7997 366.83 43.5197 368.14 44.1197C369.44 44.7197 370.93 45.2697 372.6 45.7697C374.27 46.2697 375.98 46.8297 377.73 47.4397C379.47 48.0497 381.18 48.7797 382.86 49.6097C384.53 50.4397 386.02 51.4997 387.32 52.7897C388.62 54.0797 389.67 55.6397 390.48 57.4897C391.28 59.3297 391.68 61.5598 391.68 64.1598C391.68 67.0498 391.18 69.7497 390.18 72.2697C389.18 74.7897 387.73 76.9797 385.83 78.8597C383.93 80.7297 381.58 82.2097 378.79 83.2797C376 84.3497 372.83 84.8897 369.29 84.8897C367.34 84.8897 365.36 84.6897 363.35 84.2897C361.34 83.8897 359.38 83.3197 357.49 82.5897C355.6 81.8597 353.83 80.9997 352.17 79.9897C350.51 78.9897 349.07 77.8697 347.84 76.6397L352.13 69.8597C352.44 69.3397 352.89 68.9298 353.46 68.6198C354.03 68.3098 354.65 68.1497 355.3 68.1497C356.16 68.1497 357.02 68.4197 357.9 68.9697C358.77 69.5097 359.76 70.1097 360.86 70.7697C361.96 71.4297 363.23 72.0297 364.66 72.5697C366.09 73.1097 367.78 73.3797 369.73 73.3797C372.36 73.3797 374.41 72.7997 375.87 71.6397C377.33 70.4797 378.06 68.6497 378.06 66.1297C378.06 64.6697 377.66 63.4797 376.86 62.5697C376.06 61.6497 375.01 60.8997 373.7 60.2997C372.4 59.6997 370.92 59.1697 369.26 58.7097C367.6 58.2497 365.9 57.7497 364.15 57.1897C362.41 56.6297 360.7 55.9497 359.04 55.1297C357.38 54.3097 355.9 53.2397 354.6 51.9097C353.3 50.5797 352.25 48.9197 351.45 46.9297C350.65 44.9397 350.25 42.4897 350.25 39.5697C350.25 37.2197 350.72 34.9297 351.67 32.6997C352.62 30.4697 354 28.4797 355.83 26.7397C357.66 24.9997 359.91 23.5997 362.57 22.5597C365.23 21.5197 368.28 20.9897 371.71 20.9897C373.62 20.9897 375.49 21.1397 377.31 21.4397C379.13 21.7397 380.85 22.1797 382.48 22.7697C384.11 23.3597 385.64 24.0597 387.05 24.8697C388.46 25.6797 389.73 26.6097 390.85 27.6397L387.25 34.3797L387.21 34.3597Z" fill="white"/>
<path d="M415.27 98.8901H0V105.84H415.27V98.8901Z" fill="white"/>
<path d="M415.27 0H0V6.95H415.27V0Z" fill="white"/>
</g>
<defs>
<clipPath id="clip0_329_72">
<rect width="415.27" height="105.85" fill="white"/>
</clipPath>
</defs>
</svg>
