<?xml version="1.0" encoding="UTF-8"?>
<svg id="Layer_1" data-name="Layer 1" xmlns="http://www.w3.org/2000/svg" viewBox="0 0 600 600">
  <defs>
    <style>
      .cls-1 {
        fill: #fff;
      }
    </style>
  </defs>
  <g>
    <path class="cls-1" d="M132.96,268.64c.43,.06,.82,.17,1.16,.32,.34,.16,.67,.38,.99,.67,.31,.29,.67,.67,1.07,1.16l29.69,37.55c-.12-1.2-.2-2.37-.26-3.5-.06-1.13-.09-2.2-.09-3.2v-33.08h12.79v62.52h-7.55c-1.12,0-2.06-.17-2.83-.52-.77-.34-1.52-.97-2.23-1.89l-29.48-37.24c.09,1.09,.16,2.15,.22,3.2,.06,1.05,.09,2.03,.09,2.94v33.51h-12.79v-62.52h7.64c.63,0,1.16,.03,1.59,.08Z"/>
    <path class="cls-1" d="M204.49,331.07h-14.59v-62.52h14.59v62.52Z"/>
    <path class="cls-1" d="M230.58,293.87h2.32c2.15,0,3.69-.67,4.64-2.02l14.07-20.42c.77-1.12,1.65-1.87,2.64-2.27s2.2-.6,3.63-.6h12.62l-18.54,25.27c-.66,.92-1.34,1.67-2.06,2.27-.72,.6-1.45,1.1-2.19,1.5,1.09,.4,2.08,.95,2.98,1.65,.9,.7,1.72,1.64,2.47,2.81l18.88,29.01h-12.96c-.83,0-1.54-.06-2.12-.17-.59-.11-1.1-.29-1.52-.51-.43-.23-.8-.51-1.12-.84-.32-.33-.62-.71-.9-1.14l-14.16-21.76c-.51-.8-1.17-1.36-1.95-1.7-.79-.33-1.85-.49-3.2-.49h-3.52v26.6h-14.5v-62.52h14.5v25.31Z"/>
    <path class="cls-1" d="M337.77,299.79c0,4.52-.78,8.72-2.34,12.62s-3.75,7.27-6.59,10.15c-2.83,2.87-6.24,5.13-10.23,6.76-3.99,1.63-8.42,2.44-13.28,2.44s-9.3-.81-13.3-2.44c-4.01-1.63-7.43-3.88-10.28-6.76-2.85-2.88-5.05-6.26-6.61-10.15s-2.34-8.1-2.34-12.62,.78-8.72,2.34-12.62,3.76-7.27,6.61-10.13c2.85-2.86,6.27-5.11,10.28-6.74,4-1.63,8.44-2.45,13.3-2.45s9.29,.82,13.28,2.47c3.99,1.65,7.4,3.9,10.23,6.76,2.83,2.86,5.03,6.24,6.59,10.13s2.34,8.08,2.34,12.57Zm-14.85,0c0-3.09-.4-5.87-1.2-8.35-.8-2.47-1.95-4.57-3.46-6.29-1.5-1.72-3.34-3.03-5.51-3.95-2.18-.92-4.65-1.37-7.42-1.37s-5.3,.46-7.49,1.37c-2.19,.91-4.03,2.23-5.54,3.95-1.5,1.72-2.65,3.81-3.45,6.29-.8,2.48-1.2,5.26-1.2,8.35s.4,5.91,1.2,8.39c.8,2.48,1.95,4.57,3.45,6.29,1.5,1.72,3.35,3.02,5.54,3.93,2.19,.9,4.68,1.35,7.49,1.35s5.25-.45,7.42-1.35c2.18-.9,4.01-2.21,5.51-3.93,1.5-1.72,2.65-3.81,3.46-6.29,.8-2.47,1.2-5.27,1.2-8.39Z"/>
    <path class="cls-1" d="M359.22,319.49h23.17v11.59h-37.67v-62.52h14.5v50.93Z"/>
    <path class="cls-1" d="M447.45,331.07h-11.24c-1.26,0-2.29-.29-3.11-.88-.81-.59-1.38-1.34-1.7-2.25l-3.69-10.9h-23.77l-3.69,10.9c-.29,.8-.84,1.52-1.67,2.17-.83,.65-1.84,.97-3.05,.97h-11.33l24.2-62.52h14.85l24.2,62.52Zm-40.16-23.9h17.08l-5.75-17.12c-.37-1.09-.81-2.37-1.31-3.84s-.99-3.07-1.48-4.78c-.46,1.74-.93,3.36-1.42,4.85s-.94,2.77-1.37,3.86l-5.75,17.04Z"/>
    <path class="cls-1" d="M487.35,281.25c-.43,.69-.88,1.2-1.35,1.55-.47,.34-1.08,.52-1.82,.52-.66,0-1.37-.21-2.13-.62s-1.62-.88-2.57-1.4c-.96-.51-2.05-.98-3.28-1.39-1.23-.41-2.63-.62-4.21-.62-2.72,0-4.74,.58-6.07,1.74s-2,2.72-2,4.7c0,1.26,.4,2.3,1.2,3.13,.8,.83,1.85,1.55,3.16,2.15,1.3,.6,2.79,1.15,4.46,1.65,1.67,.5,3.38,1.06,5.13,1.67,1.74,.61,3.45,1.34,5.13,2.17,1.67,.83,3.16,1.89,4.46,3.18s2.35,2.85,3.16,4.7c.8,1.84,1.2,4.07,1.2,6.67,0,2.89-.5,5.59-1.5,8.11-1,2.52-2.45,4.71-4.35,6.59-1.9,1.87-4.25,3.35-7.04,4.42-2.79,1.07-5.96,1.61-9.5,1.61-1.95,0-3.93-.2-5.94-.6s-3.97-.97-5.86-1.7-3.66-1.59-5.32-2.6c-1.66-1-3.1-2.12-4.33-3.35l4.29-6.78c.31-.52,.76-.93,1.33-1.24s1.19-.47,1.84-.47c.86,0,1.72,.27,2.6,.82,.87,.54,1.86,1.14,2.96,1.8,1.1,.66,2.37,1.26,3.8,1.8s3.12,.81,5.07,.81c2.63,0,4.68-.58,6.14-1.74,1.46-1.16,2.19-2.99,2.19-5.51,0-1.46-.4-2.65-1.2-3.56-.8-.92-1.85-1.67-3.16-2.27-1.3-.6-2.78-1.13-4.44-1.59-1.66-.46-3.36-.96-5.11-1.52-1.74-.56-3.45-1.24-5.11-2.06s-3.14-1.89-4.44-3.22c-1.3-1.33-2.35-2.99-3.15-4.98-.8-1.99-1.2-4.44-1.2-7.36,0-2.35,.47-4.64,1.42-6.87s2.33-4.22,4.16-5.96,4.08-3.14,6.74-4.18c2.66-1.04,5.71-1.57,9.14-1.57,1.91,0,3.78,.15,5.6,.45,1.82,.3,3.54,.74,5.17,1.33,1.63,.59,3.16,1.29,4.57,2.1,1.41,.81,2.68,1.74,3.8,2.77l-3.6,6.74Z"/>
  </g>
  <g>
    <rect class="cls-1" x="100.14" y="345.78" width="415.27" height="6.95"/>
    <rect class="cls-1" x="100.14" y="246.89" width="415.27" height="6.95"/>
  </g>
</svg>